<?xml version="1.0" encoding="utf-8"?>
<!-- Generator: Adobe Illustrator 25.3.1, SVG Export Plug-In . SVG Version: 6.00 Build 0)  -->
<svg version="1.1" id="Layer_1" xmlns="http://www.w3.org/2000/svg" xmlns:xlink="http://www.w3.org/1999/xlink" x="0px" y="0px"
	 viewBox="0 0 448.3 138.9" style="enable-background:new 0 0 448.3 138.9;" xml:space="preserve">
<style type="text/css">
	.st0{fill:#FFFFFF;}
	.st1{fill:none;}
	.st2{enable-background:new    ;}
</style>
<g id="Layer_2_1_">
	<g id="Layer_2-2">
		<rect x="210.2" y="65.8" class="st0" width="19.8" height="4.9"/>
		<path class="st0" d="M219.9,29.8c-21.4,0-38.7,17.3-38.7,38.7s17.3,38.7,38.7,38.7s38.7-17.3,38.7-38.7l0,0
			C258.6,47.1,241.3,29.8,219.9,29.8L219.9,29.8z M234.3,83.8h-4.5v-9.6H210v9.6h-4.5v-31h4.5v9.3h19.8v-9.3h4.5V83.8z"/>
		<polygon class="st0" points="297.1,66.6 279.9,66.6 279.9,54.2 275.5,54.2 275.5,83.4 279.9,83.4 279.9,70.7 297.1,70.7 
			297.1,83.4 301.5,83.4 301.5,54.2 297.1,54.2 		"/>
		<path class="st0" d="M316.6,66.1c2.9,0,4.9,1.5,5.8,4.3h-11.7C311.5,67.6,313.7,66.1,316.6,66.1 M316.6,62.5
			c-5.9,0-10.4,4.6-10.4,10.7c-0.1,5.8,4.5,10.6,10.3,10.7c0.2,0,0.3,0,0.5,0c7,0,9.5-4.7,9.8-6.4v-0.3h-4l-0.1,0.1
			c-0.1,0.1-1.4,2.7-5.8,2.7c-3.6,0-6.3-2.5-6.6-6.2H327v-0.2C327,67.1,322.7,62.5,316.6,62.5"/>
		<path class="st0" d="M341,80.1c-3.9,0-6.5-2.8-6.5-6.9s2.7-6.9,6.5-6.9c3.9,0,6.5,2.8,6.5,6.9C347.5,77.2,344.8,80.1,341,80.1
			 M347.4,65.7c-1-1.4-3.3-3.2-7.1-3.2c-6,0-10.1,4.4-10.1,10.7s4.2,10.7,10.1,10.7c2.8,0.1,5.4-1.2,7.1-3.4v2.9h4.1V53.2h-4.1V65.7
			z"/>
		<path class="st0" d="M366.8,66.1c2.9,0,4.9,1.5,5.8,4.3h-11.7C361.7,67.6,363.9,66.1,366.8,66.1 M366.8,62.5
			c-5.9,0-10.4,4.6-10.4,10.7c-0.1,5.8,4.5,10.6,10.3,10.7c0.2,0,0.3,0,0.5,0c7,0,9.5-4.7,9.8-6.4v-0.3h-4l-0.1,0.1
			c-0.1,0.1-1.4,2.7-5.8,2.7c-3.6,0-6.3-2.5-6.6-6.2h16.6v-0.2C377.2,67.1,372.9,62.5,366.8,62.5"/>
		<path class="st0" d="M386,65.9v-3h-4.1v20.5h4.1V71.9c0-3.6,1.9-5,6.7-5h5.3v-4.1h-5.2C388.7,62.8,386.8,64.6,386,65.9"/>
		<path class="st0" d="M416.3,73.2c0,4-2.6,6.9-6.3,6.9c-3.8,0-6.4-2.8-6.4-6.9s2.7-6.9,6.4-6.9C413.7,66.3,416.4,69.2,416.3,73.2
			 M416.3,65.7c-0.8-1.1-2.9-3.3-6.9-3.3c-5,0-10,3.7-10,10.7c0,6.3,4.1,10.7,10,10.7c2.7,0.1,5.3-1.2,6.9-3.4v2.9h4.1V63h-4.1V65.7
			z"/>
		<polygon class="st0" points="424.4,63.6 425.5,63.6 425.5,66.1 426,66.1 426,63.6 427.1,63.6 427.1,63.2 424.4,63.2 		"/>
		<polygon class="st0" points="430.3,63.2 429.4,65.5 428.4,63.2 427.7,63.2 427.7,66.1 428.1,66.1 428.1,63.6 429.2,66.1 
			429.5,66.1 430.6,63.6 430.6,66.1 431,66.1 431,63.2 		"/>
	</g>
</g>
<rect x="16" y="55.3" class="st1" width="150" height="57.3"/>
<g class="st2">
	<path class="st0" d="M24.2,56.2h12.5c5.5,0,8.6,2.5,8.6,6.9c0,2.8-2,4.6-4.1,5.2c2.5,0.6,4.6,2.8,4.6,6.1c0,4.5-3,7.3-8.8,7.3H24.2
		V56.2z M27.7,59.4v7.5h9c3.3,0,5-1.3,5-3.8c0-2.6-1.7-3.8-5-3.8H27.7z M27.7,70.1v8.4h9.2c3.7,0,5.4-1.6,5.4-4.2
		c0-2.7-1.7-4.2-5.4-4.2H27.7z"/>
	<path class="st0" d="M51.6,74.2V64h3.3v9.6c0,3.3,1.8,5.5,5,5.5c3.2,0,5-2.2,5-5.5V64h3.3v10.2c0,4.6-3.2,7.9-8.3,7.9
		S51.6,78.8,51.6,74.2z"/>
	<path class="st0" d="M74.8,55.4h3.4v5.1h-3.4V55.4z M74.8,64h3.3v17.8h-3.3V64z"/>
	<path class="st0" d="M85,55.3h3.3v26.4H85V55.3z"/>
	<path class="st0" d="M108.4,81.7h-4.2c-4.2,0-6.2-2-6.2-5.9v-8.9h-5.2V64H98v-7.8h3.3V64h7.2v2.9h-7.2V75c0,2.6,0.9,3.7,3.7,3.7
		h3.5V81.7z"/>
	<path class="st0" d="M140.5,72.8c0,5.3-4.1,9.3-9.3,9.3c-5.3,0-9.3-4-9.3-9.3s4-9.3,9.3-9.3C136.4,63.5,140.5,67.6,140.5,72.8z
		 M137.1,72.8c0-3.5-2.4-6.3-6-6.3s-6,2.8-6,6.3s2.4,6.3,6,6.3S137.1,76.4,137.1,72.8z"/>
	<path class="st0" d="M149.2,81.7h-3.3V64h3.3v3.3c0.7-1.4,2.7-3.7,6-3.7c4.5,0,7.6,3.4,7.6,7.9v10.2h-3.3v-9.6c0-3.3-2-5.5-5.1-5.5
		c-3.2,0-5.2,2.3-5.2,5.5V81.7z"/>
</g>
</svg>
