<?xml version="1.0" encoding="UTF-8"?>
<svg width="2292px" height="728px" viewBox="0 0 2292 728" version="1.1" xmlns="http://www.w3.org/2000/svg" xmlns:xlink="http://www.w3.org/1999/xlink">
    <title>Web23_Logo-Horizontal_White</title>
    <g id="Assets" stroke="none" stroke-width="1" fill="none" fill-rule="evenodd">
        <g id="Web23_Logo-Horizontal_Production" transform="translate(-243.000000, -239.000000)" fill="#FFFFFF">
            <g id="Web23_Logo-Horizontal_White" transform="translate(243.000000, 239.000000)">
                <path d="M364,0 C565.031649,0 728,162.968351 728,364 C728,565.031649 565.031649,728 364,728 C162.968351,728 0,565.031649 0,364 C0,162.968351 162.968351,0 364,0 Z M501.308396,372.382251 L476.374043,397.316604 L488.84122,409.78378 L489.95606,410.916831 C526.374173,448.535335 526.00256,508.55488 488.84122,545.71622 C451.304513,583.252927 390.445487,583.252927 352.90878,545.71622 L352.90878,545.71622 L340.441604,533.249043 L315.507251,558.183396 L327.974427,570.650573 L329.523154,572.174408 C380.942529,621.953012 462.981079,621.445067 513.775573,570.650573 C565.083142,519.343003 565.083142,436.156997 513.775573,384.849427 L513.775573,384.849427 L501.308396,372.382251 Z M340.441604,305.749043 L180.907824,465.282824 L193.375,495.38125 L438.50625,495.38125 L438.50625,460.11875 L235.94025,460.11875 L365.375957,330.683396 L340.441604,305.749043 Z M534.625,232.61875 L289.49375,232.61875 L289.49375,267.88125 L492.05975,267.881616 L362.624043,397.316604 L387.558396,422.250957 L547.092176,262.717176 L534.625,232.61875 Z M398.476846,155.825592 C347.057471,106.046988 265.018921,106.554933 214.224427,157.349427 C162.916858,208.656997 162.916858,291.843003 214.224427,343.150573 L214.224427,343.150573 L226.691604,355.617749 L251.625957,330.683396 L239.15878,318.21622 L238.04394,317.083169 C201.625827,279.464665 201.99744,219.44512 239.15878,182.28378 C276.695487,144.747073 337.554513,144.747073 375.09122,182.28378 L375.09122,182.28378 L387.558396,194.750957 L412.492749,169.816604 L400.025573,157.349427 Z" id="Web23_Logo-Circle"></path>
                <path d="M993.883353,495 L909,236 L970.997682,236 L1044.66076,465.388438 L1013.58966,465.388438 L1090.64598,236 L1146.15197,236 L1219.96534,465.388438 L1190.0735,465.388438 L1265.80027,236 L1323,236 L1238.11665,495 L1173.9859,495 L1108.36374,293.592812 L1125.4803,293.592812 L1058.23955,495 L993.883353,495 Z M1405.01639,340.632246 L1529.75878,340.632246 L1529.75878,387.083333 L1405.01639,387.083333 L1405.01639,340.632246 Z M1408.61241,446.778594 L1550,446.778594 L1550,495 L1349,495 L1349,236 L1544.95458,236 L1544.95458,284.221406 L1408.61241,284.221406 L1408.61241,446.778594 Z M1587,495 L1587,236 L1714.25853,236 C1746.93216,236 1771.56528,242.165703 1788.1579,254.497109 C1804.75052,266.828516 1813.04683,283.157656 1813.04683,303.484531 C1813.04683,317.004948 1809.68741,328.735104 1802.96858,338.675 C1796.24975,348.614896 1787.03002,356.321302 1775.30937,361.794219 C1763.58873,367.267135 1750.17626,370.003594 1735.07198,370.003594 L1742.066,354.712187 C1758.51521,354.712187 1773.03423,357.400469 1785.62308,362.777031 C1798.21192,368.153594 1808.08861,376.019948 1815.25317,386.376094 C1822.41772,396.73224 1826,409.360417 1826,424.260625 C1826,446.556979 1817.19692,463.920964 1799.59076,476.352578 C1781.9846,488.784193 1756.02108,495 1721.70021,495 L1587,495 Z M1647.58114,449.487319 L1717.98844,449.487319 C1733.46822,449.487319 1745.26368,446.907024 1753.37481,441.746434 C1761.48594,436.585844 1765.5415,428.521459 1765.5415,417.55328 C1765.5415,406.5851 1761.48594,398.484129 1753.37481,393.250367 C1745.26368,388.016604 1733.46822,385.399723 1717.98844,385.399723 L1643.20751,385.399723 L1643.20751,341.779258 L1707.45461,341.779258 C1722.13391,341.779258 1733.33094,339.223033 1741.0457,334.110583 C1748.76046,328.998133 1752.61784,321.352564 1752.61784,311.173878 C1752.61784,300.898913 1748.76046,293.230237 1741.0457,288.167853 C1733.33094,283.105468 1722.13391,280.574275 1707.45461,280.574275 L1647.58114,280.574275 L1647.58114,449.487319 Z M1864.62186,494 L1864.62186,455.358849 L1964.91978,361.097072 C1972.64065,353.795686 1978.40716,347.344909 1982.21932,341.744743 C1986.03147,336.144576 1988.5816,331.013014 1989.8697,326.350057 C1991.1578,321.6871 1991.80185,317.282983 1991.80185,313.137705 C1991.80185,303.018915 1988.32089,295.132495 1981.35898,289.478443 C1974.39706,283.824392 1964.10289,280.997366 1950.47646,280.997366 C1939.38375,280.997366 1929.2209,283.14121 1919.98791,287.428898 C1910.75493,291.716585 1902.96743,298.248189 1896.62542,307.023708 L1853,279.045967 C1862.84131,264.281541 1876.63285,252.582774 1894.37463,243.949664 C1912.11641,235.316555 1932.64199,231 1955.95137,231 C1975.27479,231 1992.17553,234.103185 2006.65361,240.309556 C2021.13169,246.515926 2032.37214,255.31935 2040.37497,266.719827 C2048.37779,278.120304 2052.3792,291.626136 2052.3792,307.237323 C2052.3792,315.612555 2051.29194,323.951223 2049.11743,332.253326 C2046.94292,340.555429 2042.71652,349.287648 2036.43825,358.449982 C2030.15997,367.612317 2020.94147,377.859083 2008.78274,389.19028 L1925.80174,466.934451 L1914.54487,445.111121 L2061,445.111121 L2061,494 L1864.62186,494 Z M2184.14204,499 C2166.01388,499 2148.08784,496.582883 2130.36394,491.74865 C2112.64004,486.914417 2097.51873,480.084522 2085,471.258967 L2108.43779,425.47616 C2118.38391,432.769848 2129.89488,438.514349 2142.97068,442.709663 C2156.04648,446.904977 2169.30217,449.002634 2182.73775,449.002634 C2197.72076,449.002634 2209.56442,446.038972 2218.26873,440.111648 C2226.97303,434.184323 2231.32519,426.038101 2231.32519,415.672982 C2231.32519,405.84286 2227.47885,398.050738 2219.78618,392.296615 C2212.0935,386.542492 2199.68793,383.66543 2182.56947,383.66543 L2155.42944,383.66543 L2155.42944,344.360342 L2227.57653,262.545945 L2234.48195,284.155661 L2097.92299,284.155661 L2097.92299,236 L2280.13313,236 L2280.13313,274.641151 L2207.98024,356.449774 L2177.66604,339.04307 L2194.86575,339.04307 C2226.95175,339.04307 2251.1623,346.198197 2267.49738,360.508452 C2283.83246,374.818706 2292,393.131829 2292,415.44782 C2292,430.077534 2288.15173,443.75753 2280.45519,456.487806 C2272.75865,469.218082 2260.96722,479.486017 2245.08089,487.29161 C2229.19456,495.097203 2208.88162,499 2184.14204,499 Z" id="Web23_Logo-Text" fill-rule="nonzero"></path>
            </g>
        </g>
    </g>
</svg>